# xmcd
#
# Track frame offsets:
#	150
#	13087
#	20842
#	43750
#	50142
#	65750
#	76450
#	95427
#	112179
#	126007
#	138220
#	154845
#	168165
#	179175
#	192702
#	203437
#	224155
#	239075
#
# Disc length: 3341 seconds
#
# Revision: 0
# Processed by: cddbd v1.5PL3 Copyright (c) Steve Scherf et al.
# Submitted via: EasyCDDAExtractor 4.6.9.1
#
DISCID=1c0d0b12
DTITLE=John Lee Hooker - The Masters - Disc 1
DYEAR=1997
DGENRE=Blues
TTITLE0=I Can't Quit You Now Blues
TTITLE1=Stop Baby, Don't Hold Me That Way
TTITLE2=Tupelo
TTITLE3=Talk That Talk Baby
TTITLE4=Sometime Baby You Make Me Feel So Bad
TTITLE5=Let's Make It
TTITLE6=Ain't No Big Thing Baby
TTITLE7=She Left Me One Wednesday
TTITLE8=You Can Run Baby
TTITLE9=Everybody Rockin'
TTITLE10=Trying To Find a Woman
TTITLE11=Canal Street Blues
TTITLE12=Goin' To California
TTITLE13=Whiskey and Wimmen
TTITLE14=Dusty Road
TTITLE15=She Loves My Best Friend
TTITLE16=Moanin' Blues
TTITLE17=Will The Circle Be Unbroken
EXTD=
EXTT0=
EXTT1=
EXTT2=
EXTT3=
EXTT4=
EXTT5=
EXTT6=
EXTT7=
EXTT8=
EXTT9=
EXTT10=
EXTT11=
EXTT12=
EXTT13=
EXTT14=
EXTT15=
EXTT16=
EXTT17=
PLAYORDER=
